#N canvas 430 320 801 411 10;
#X declare -path ./lib;
#X obj 44 325 outlet~;
#N canvas 677 129 728 538 init 0;
#X obj 40 51 t b b b b;
#N canvas 659 386 570 437 gen-wavetables 0;
#X obj 154 124 until;
#X obj 154 156 f;
#X obj 184 158 + 1;
#X msg 211 127 0;
#X obj 154 180 pack f s \$0;
#X obj 133 307 s missive-\$0-wt-set;
#X obj 133 287 symbol;
#X msg 154 202 \; pd-\$3-wavetables obj 100 100 period-loader \$1 \$3
\;;
#X obj 41 52 t f b f b;
#X obj 41 354 outlet;
#X obj 41 32 inlet;
#X obj 179 257 inlet;
#X connect 0 0 1 0;
#X connect 1 0 2 0;
#X connect 1 0 4 0;
#X connect 2 0 1 1;
#X connect 3 0 1 1;
#X connect 4 0 7 0;
#X connect 6 0 5 0;
#X connect 8 0 9 0;
#X connect 8 1 6 0;
#X connect 8 2 0 0;
#X connect 8 3 3 0;
#X connect 10 0 8 0;
#X connect 11 0 6 1;
#X restore 221 427 pd gen-wavetables;
#N canvas 976 576 713 370 gen-wavereaders 0;
#X obj 125 154 until;
#X obj 125 186 f;
#X obj 155 188 + 1;
#X msg 182 157 0;
#X text 447 126 \$1: Wavetable set \; \$2: wavetablePeriodID \; \$3:
missive dollar zero \;;
#X obj 125 230 pack f s \$0;
#X obj 95 122 t f f b;
#X obj 95 294 outlet;
#X msg 125 252 \; pd-\$3-wavereaders obj 100 100 wave-reader \$2 \$1
\$3 \;;
#X obj 125 58 r missive-\$0-num-wavetables;
#X obj 95 92 f;
#X floatatom 35 143 5 0 0 0 - - -, f 5;
#X obj 241 182 inlet;
#X obj 241 204 outlet;
#X obj 95 27 inlet;
#X connect 0 0 1 0;
#X connect 1 0 2 0;
#X connect 1 0 5 0;
#X connect 2 0 1 1;
#X connect 3 0 1 1;
#X connect 5 0 8 0;
#X connect 6 0 7 0;
#X connect 6 1 0 0;
#X connect 6 2 3 0;
#X connect 9 0 10 1;
#X connect 10 0 6 0;
#X connect 10 0 11 0;
#X connect 12 0 5 1;
#X connect 12 0 13 0;
#X connect 14 0 10 0;
#X restore 221 397 pd gen-wavereaders;
#N canvas 304 218 1259 728 gen-crossfades 0;
#X obj 95 112 t f b, f 6;
#X obj 95 134 until;
#X obj 95 166 f;
#X obj 125 168 + 1;
#X msg 152 137 0;
#X msg 778 218 1;
#X obj 778 287 * 2;
#X obj 778 310 t b f;
#X msg 778 332 1;
#X obj 778 354 -;
#X obj 796 240 + 1;
#X obj 778 263 /;
#X obj 604 121 t b b b b b;
#X obj 707 472 pack f \$0;
#X obj 707 452 f;
#X msg 707 495 \; pd-\$2-crossfades obj 50 75 *~ \$1 \; pd-\$2-crossfades
connect 0 0 1 0 \;;
#X obj 617 526 pack f \$0;
#X obj 617 506 f;
#X obj 539 599 pack f \$0;
#X obj 539 579 + 100;
#X obj 539 527 - 1;
#X obj 539 549 * 50;
#X msg 617 549 \; pd-\$2-crossfades obj 50 100 +~ \$1 \; pd-\$2-crossfades
connect 1 0 2 0 \;;
#X msg 539 622 \; pd-\$2-crossfades obj 50 125 *~ \$1 \; pd-\$2-crossfades
connect 2 0 3 0 \;;
#X obj 153 215 * 25;
#X obj 153 237 + 150;
#X obj 95 188 t f f f;
#X obj 113 226 + 4;
#X obj 374 53 t f b f;
#X obj 539 505 f;
#X obj 233 207 r missive-\$0-wt-set;
#X msg 95 302 \; pd-\$7-crossfades obj 50 \$3 wt-gainsetter \$7 \$5
\$6 \$1 \; pd-\$7-crossfades connect 3 0 \$2 0 \;;
#X text 92 358 \$1: wavetable ID \; \$2: object instance ID within
this subpatch \; \$3: y-position \; \$4: not used \; \$5: wavetable
set name \; \$6: number of wavetables in this set \; \$7: dollar 0
\;;
#X obj 95 270 pack f f f f s f \$0;
#X msg 797 445 \; pd-\$1-crossfades obj 50 50 r~ missive-\$1-wt-index
\;;
#X obj 797 422 f \$0;
#X obj 374 31 inlet;
#X connect 0 0 1 0;
#X connect 0 1 4 0;
#X connect 1 0 2 0;
#X connect 2 0 3 0;
#X connect 2 0 26 0;
#X connect 3 0 2 1;
#X connect 4 0 2 1;
#X connect 5 0 11 0;
#X connect 6 0 7 0;
#X connect 7 0 8 0;
#X connect 7 1 9 1;
#X connect 8 0 9 0;
#X connect 9 0 14 1;
#X connect 10 0 11 1;
#X connect 11 0 6 0;
#X connect 11 0 17 1;
#X connect 12 0 29 0;
#X connect 12 1 17 0;
#X connect 12 2 14 0;
#X connect 12 3 35 0;
#X connect 12 4 5 0;
#X connect 13 0 15 0;
#X connect 14 0 13 0;
#X connect 16 0 22 0;
#X connect 17 0 16 0;
#X connect 18 0 23 0;
#X connect 19 0 18 0;
#X connect 20 0 21 0;
#X connect 21 0 19 0;
#X connect 24 0 25 0;
#X connect 25 0 33 2;
#X connect 26 0 33 0;
#X connect 26 1 27 0;
#X connect 26 2 24 0;
#X connect 27 0 33 1;
#X connect 28 0 0 0;
#X connect 28 1 12 0;
#X connect 28 2 10 0;
#X connect 28 2 29 1;
#X connect 28 2 33 5;
#X connect 29 0 20 0;
#X connect 30 0 33 4;
#X connect 33 0 31 0;
#X connect 35 0 34 0;
#X connect 36 0 28 0;
#X restore 221 457 pd gen-crossfades;
#N canvas 1368 407 523 436 check-num-wavetables 0;
#X obj 58 128 f;
#X obj 101 131 + 1;
#X msg 107 98 0;
#X obj 58 88 until;
#X obj 58 252 soundfiler;
#X obj 58 274 select 0;
#X obj 58 296 f;
#X obj 58 150 t f f;
#X obj 284 87 table dummy-\$0;
#X obj 58 56 t b s;
#X msg 58 230 read -resize wavetables/\$2/\$1.wav dummy-\$3;
#X obj 58 192 pack f s \$0;
#X obj 58 340 s missive-\$0-num-wavetables;
#X obj 58 27 inlet;
#X connect 0 0 7 0;
#X connect 0 0 1 0;
#X connect 1 0 0 1;
#X connect 2 0 0 1;
#X connect 3 0 0 0;
#X connect 4 0 5 0;
#X connect 5 0 3 1;
#X connect 5 0 6 0;
#X connect 6 0 12 0;
#X connect 7 0 11 0;
#X connect 7 1 6 1;
#X connect 9 0 3 0;
#X connect 9 1 2 0;
#X connect 9 1 11 1;
#X connect 10 0 4 0;
#X connect 11 0 10 0;
#X connect 13 0 9 0;
#X restore 461 397 pd check-num-wavetables;
#N canvas 898 488 450 300 clear-all 0;
#X obj 169 117 f \$0;
#X msg 169 139 \; pd-\$1-wavetables clear \; pd-\$1-wavereaders clear
\; pd-\$1-crossfades clear \;;
#X obj 109 88 t b b;
#X obj 109 220 outlet;
#X obj 169 97 bng 15 250 50 0 empty empty empty 17 7 0 10 -262144 -1
-1;
#X obj 109 66 inlet;
#X connect 0 0 1 0;
#X connect 2 0 3 0;
#X connect 2 1 0 0;
#X connect 4 0 0 0;
#X connect 5 0 2 0;
#X restore 221 337 pd clear-all;
#X obj 170 167 s missive-\$0-lb1;
#X obj 130 197 s missive-\$0-lb2;
#X obj 80 227 s missive-\$0-lb3;
#X obj 40 257 s missive-\$0-lb4;
#X obj 451 179 declare -path ./lib;
#X floatatom 198 103 5 0 0 0 - - -, f 5;
#X obj 198 81 r missive-\$0-num-wavetables;
#X obj 198 21 r missive-\$0-wt-set;
#X symbolatom 198 43 30 0 0 0 - - -, f 30;
#X obj 40 22 loadbang;
#X obj 464 328 symbol \$1;
#X obj 464 306 r missive-\$0-lb1;
#X obj 221 283 r missive-\$0-lb2;
#X obj 370 466 s missive-\$0-init-gainsetters;
#X obj 410 434 r missive-\$0-lb4;
#X obj 389 244 r missive-\$0-incoming-wt-set;
#X obj 389 266 t b b s;
#X connect 0 0 9 0;
#X connect 0 1 8 0;
#X connect 0 2 7 0;
#X connect 0 3 6 0;
#X connect 1 0 3 0;
#X connect 2 0 1 0;
#X connect 2 1 1 1;
#X connect 5 0 2 0;
#X connect 12 0 11 0;
#X connect 13 0 14 0;
#X connect 15 0 0 0;
#X connect 16 0 2 1;
#X connect 16 0 4 0;
#X connect 17 0 16 0;
#X connect 18 0 5 0;
#X connect 20 0 19 0;
#X connect 21 0 22 0;
#X connect 22 0 19 0;
#X connect 22 1 5 0;
#X connect 22 2 2 1;
#X connect 22 2 4 0;
#X restore 44 167 pd init;
#X obj 44 73 inlet~;
#X obj 234 73 inlet~;
#N canvas 1101 63 291 346 \$0-wavetables 0;
#X obj 100 100 period-loader 0 4418;
#X obj 100 100 period-loader 1 4418;
#X obj 100 100 period-loader 2 4418;
#X obj 100 100 period-loader 3 4418;
#X obj 100 100 period-loader 4 4418;
#X restore 44 187 pd \$0-wavetables;
#N canvas 1096 101 330 317 \$0-wavereaders 0;
#X obj 100 100 wave-reader groan 0 4418;
#X obj 100 100 wave-reader groan 1 4418;
#X obj 100 100 wave-reader groan 2 4418;
#X obj 100 100 wave-reader groan 3 4418;
#X obj 100 100 wave-reader groan 4 4418;
#X restore 44 207 pd \$0-wavereaders;
#N canvas 904 217 493 399 \$0-crossfades 0;
#X obj 50 50 r~ missive-4418-wt-index;
#X obj 50 75 *~ 0.666667;
#X obj 50 100 +~ 0.166667;
#X obj 50 125 *~ 300;
#X obj 50 150 wt-gainsetter 4418 groan 5 0;
#X obj 50 175 wt-gainsetter 4418 groan 5 1;
#X obj 50 200 wt-gainsetter 4418 groan 5 2;
#X obj 50 225 wt-gainsetter 4418 groan 5 3;
#X obj 50 250 wt-gainsetter 4418 groan 5 4;
#X connect 0 0 1 0;
#X connect 1 0 2 0;
#X connect 2 0 3 0;
#X connect 3 0 4 0;
#X connect 3 0 5 0;
#X connect 3 0 6 0;
#X connect 3 0 7 0;
#X connect 3 0 8 0;
#X restore 44 227 pd \$0-crossfades;
#X obj 434 73 inlet~;
#X obj 234 95 /~ 100;
#X obj 434 95 /~ 100;
#X obj 44 125 s~ missive-\$0-phasor;
#X obj 234 125 s~ missive-\$0-wt-index;
#X obj 434 125 s~ missive-\$0-squeeze;
#X obj 44 287 catch~ missive-\$0-sum-bus;
#X obj 624 73 inlet;
#N canvas 1144 96 450 300 parse-commands 0;
#X obj 48 38 inlet;
#X obj 48 60 route set;
#X obj 48 112 s missive-\$0-incoming-wt-set;
#X obj 48 82 symbol;
#X connect 0 0 1 0;
#X connect 1 0 3 0;
#X connect 3 0 2 0;
#X restore 624 95 pd parse-commands;
#X text 349 208 \$1: wavetable set name \;;
#X text 623 306 [missive~] \; William Brent \; Aaron Groves \; version
0.3 \; 2017;
#X connect 2 0 10 0;
#X connect 3 0 8 0;
#X connect 7 0 9 0;
#X connect 8 0 11 0;
#X connect 9 0 12 0;
#X connect 13 0 0 0;
#X connect 14 0 15 0;
#X coords 0 411 1 410 410 250 0;
