#N canvas 430 320 801 411 10;
#X declare -path ./lib;
#X obj 44 325 outlet~;
#N canvas 658 205 675 538 init 0;
#X obj 40 51 t b b b b;
#N canvas 659 386 570 437 gen-wavetables 0;
#X obj 154 124 until;
#X obj 154 156 f;
#X obj 184 158 + 1;
#X msg 211 127 0;
#X obj 133 307 s missive-\$0-wt-set;
#X obj 133 287 symbol;
#X obj 41 354 outlet;
#X obj 41 32 inlet;
#X obj 179 257 inlet;
#X obj 154 180 pack f \$0;
#X msg 154 202 \; pd-\$2-wavetables obj 100 100 period-loader \$1 \$2
\;;
#X obj 41 63 t f b f b;
#X connect 0 0 1 0;
#X connect 1 0 2 0;
#X connect 1 0 9 0;
#X connect 2 0 1 1;
#X connect 3 0 1 1;
#X connect 5 0 4 0;
#X connect 7 0 11 0;
#X connect 8 0 5 1;
#X connect 9 0 10 0;
#X connect 11 0 6 0;
#X connect 11 1 5 0;
#X connect 11 2 0 0;
#X connect 11 3 3 0;
#X restore 221 427 pd gen-wavetables;
#N canvas 976 576 713 370 gen-wavereaders 0;
#X obj 125 154 until;
#X obj 125 186 f;
#X obj 155 188 + 1;
#X msg 182 157 0;
#X text 447 126 \$1: Wavetable set \; \$2: wavetablePeriodID \; \$3:
missive dollar zero \;;
#X obj 125 230 pack f s \$0;
#X obj 95 122 t f f b;
#X obj 95 294 outlet;
#X msg 125 252 \; pd-\$3-wavereaders obj 100 100 wave-reader \$2 \$1
\$3 \;;
#X obj 125 58 r missive-\$0-num-wavetables;
#X obj 95 92 f;
#X floatatom 35 143 5 0 0 0 - - - 0;
#X obj 241 182 inlet;
#X obj 95 27 inlet;
#X connect 0 0 1 0;
#X connect 1 0 2 0;
#X connect 1 0 5 0;
#X connect 2 0 1 1;
#X connect 3 0 1 1;
#X connect 5 0 8 0;
#X connect 6 0 7 0;
#X connect 6 1 0 0;
#X connect 6 2 3 0;
#X connect 9 0 10 1;
#X connect 10 0 6 0;
#X connect 10 0 11 0;
#X connect 12 0 5 1;
#X connect 13 0 10 0;
#X restore 221 397 pd gen-wavereaders;
#N canvas 304 218 1259 728 gen-crossfades 0;
#X obj 95 112 t f b, f 6;
#X obj 95 134 until;
#X obj 95 166 f;
#X obj 125 168 + 1;
#X msg 152 137 0;
#X msg 778 218 1;
#X obj 778 287 * 2;
#X obj 778 310 t b f;
#X msg 778 332 1;
#X obj 778 354 -;
#X obj 796 240 + 1;
#X obj 778 263 /;
#X obj 604 121 t b b b b b;
#X obj 707 472 pack f \$0;
#X obj 707 452 f;
#X msg 707 495 \; pd-\$2-crossfades obj 50 75 *~ \$1 \; pd-\$2-crossfades
connect 0 0 1 0 \;;
#X obj 617 526 pack f \$0;
#X obj 617 506 f;
#X obj 539 599 pack f \$0;
#X obj 539 579 + 100;
#X obj 539 527 - 1;
#X obj 539 549 * 50;
#X msg 617 549 \; pd-\$2-crossfades obj 50 100 +~ \$1 \; pd-\$2-crossfades
connect 1 0 2 0 \;;
#X msg 539 622 \; pd-\$2-crossfades obj 50 125 *~ \$1 \; pd-\$2-crossfades
connect 2 0 3 0 \;;
#X obj 153 215 * 25;
#X obj 153 237 + 150;
#X obj 95 188 t f f f;
#X obj 113 226 + 4;
#X obj 374 53 t f b f;
#X obj 539 505 f;
#X obj 233 207 r missive-\$0-wt-set;
#X msg 95 302 \; pd-\$7-crossfades obj 50 \$3 wt-gainsetter \$7 \$5
\$6 \$1 \; pd-\$7-crossfades connect 3 0 \$2 0 \;;
#X text 92 358 \$1: wavetable ID \; \$2: object instance ID within
this subpatch \; \$3: y-position \; \$4: not used \; \$5: wavetable
set name \; \$6: number of wavetables in this set \; \$7: dollar 0
\;;
#X obj 95 270 pack f f f f s f \$0;
#X msg 797 445 \; pd-\$1-crossfades obj 50 50 r~ missive-\$1-wt-index
\;;
#X obj 797 422 f \$0;
#X obj 374 31 inlet;
#X connect 0 0 1 0;
#X connect 0 1 4 0;
#X connect 1 0 2 0;
#X connect 2 0 3 0;
#X connect 2 0 26 0;
#X connect 3 0 2 1;
#X connect 4 0 2 1;
#X connect 5 0 11 0;
#X connect 6 0 7 0;
#X connect 7 0 8 0;
#X connect 7 1 9 1;
#X connect 8 0 9 0;
#X connect 9 0 14 1;
#X connect 10 0 11 1;
#X connect 11 0 6 0;
#X connect 11 0 17 1;
#X connect 12 0 29 0;
#X connect 12 1 17 0;
#X connect 12 2 14 0;
#X connect 12 3 35 0;
#X connect 12 4 5 0;
#X connect 13 0 15 0;
#X connect 14 0 13 0;
#X connect 16 0 22 0;
#X connect 17 0 16 0;
#X connect 18 0 23 0;
#X connect 19 0 18 0;
#X connect 20 0 21 0;
#X connect 21 0 19 0;
#X connect 24 0 25 0;
#X connect 25 0 33 2;
#X connect 26 0 33 0;
#X connect 26 1 27 0;
#X connect 26 2 24 0;
#X connect 27 0 33 1;
#X connect 28 0 0 0;
#X connect 28 1 12 0;
#X connect 28 2 10 0;
#X connect 28 2 29 1;
#X connect 28 2 33 5;
#X connect 29 0 20 0;
#X connect 30 0 33 4;
#X connect 33 0 31 0;
#X connect 35 0 34 0;
#X connect 36 0 28 0;
#X restore 221 457 pd gen-crossfades;
#N canvas 898 488 450 300 clear-all 0;
#X obj 169 117 f \$0;
#X msg 169 139 \; pd-\$1-wavetables clear \; pd-\$1-wavereaders clear
\; pd-\$1-crossfades clear \;;
#X obj 109 88 t b b;
#X obj 109 220 outlet;
#X obj 169 97 bng 15 250 50 0 empty empty empty 17 7 0 10 #fcfcfc #000000
#000000;
#X obj 109 66 inlet;
#X connect 0 0 1 0;
#X connect 2 0 3 0;
#X connect 2 1 0 0;
#X connect 4 0 0 0;
#X connect 5 0 2 0;
#X restore 221 337 pd clear-all;
#X obj 170 167 s missive-\$0-lb1;
#X obj 130 197 s missive-\$0-lb2;
#X obj 80 227 s missive-\$0-lb3;
#X obj 40 257 s missive-\$0-lb4;
#X obj 451 179 declare -path ./lib;
#X floatatom 198 103 5 0 0 0 - - - 0;
#X obj 198 81 r missive-\$0-num-wavetables;
#X obj 198 21 r missive-\$0-wt-set;
#X symbolatom 198 43 30 0 0 0 - - - 0;
#X obj 40 22 loadbang;
#X obj 504 318 symbol \$1;
#X obj 504 296 r missive-\$0-lb1;
#X obj 221 283 r missive-\$0-lb2;
#X obj 370 466 s missive-\$0-init-gainsetters;
#X obj 410 434 r missive-\$0-lb4;
#X obj 389 244 r missive-\$0-incoming-wt-set;
#X obj 389 266 t b b s;
#X obj 484 318 bng 15 250 50 0 empty empty empty 17 7 0 10 #fcfcfc
#000000 #000000;
#X obj 201 337 bng 15 250 50 0 empty empty empty 17 7 0 10 #fcfcfc
#000000 #000000;
#N canvas 526 96 760 730 enumerate-wavetables 0;
#X obj 117 299 f;
#X obj 160 302 + 1;
#X obj 58 27 inlet;
#X obj 77 229 file glob;
#X obj 447 362 pdcontrol;
#X msg 447 336 dir 0;
#X obj 58 580 f;
#X obj 447 383 makefilename %s/wavetables/%%s/*.wav;
#X msg 447 404 set \$1;
#X obj 447 425 makefilename notset;
#X msg 77 176 symbol \$1/*.wav;
#X text 522 299 If the incoming symbol fails \, search the local "wavetables"
sub-directory to try and load the set, f 28;
#X obj 265 605 outlet;
#X obj 265 575 symbol;
#X obj 58 69 t b b b s s b;
#X text 264 635 name only;
#X obj 368 361 symbol;
#N canvas 830 582 223 300 strip-name 0;
#X obj 58 79 file split;
#X obj 58 100 t l l;
#X obj 58 137 list length;
#X obj 58 158 - 1;
#X obj 58 203 list store;
#X msg 58 179 get \$1 1;
#X obj 58 39 inlet;
#X obj 58 233 outlet;
#X connect 0 0 1 0;
#X connect 1 0 2 0;
#X connect 1 1 4 1;
#X connect 2 0 3 0;
#X connect 3 0 5 0;
#X connect 4 0 7 0;
#X connect 5 0 4 0;
#X connect 6 0 0 0;
#X restore 298 495 pd strip-name;
#X obj 368 296 t b b;
#X obj 340 214 text define missive-\$0-filenames;
#X msg 340 188 clear;
#X obj 77 253 t s b;
#X msg 196 174 0;
#X obj 58 670 s missive-\$0-num-wavetables;
#X floatatom 78 641 5 0 0 0 - - - 0;
#X obj 58 601 + 1;
#X obj 77 354 text set missive-\$0-filenames;
#X connect 0 0 1 0;
#X connect 0 0 6 1;
#X connect 0 0 26 1;
#X connect 1 0 0 1;
#X connect 2 0 14 0;
#X connect 3 0 21 0;
#X connect 3 1 18 0;
#X connect 4 0 7 0;
#X connect 5 0 4 0;
#X connect 6 0 25 0;
#X connect 7 0 8 0;
#X connect 8 0 9 0;
#X connect 9 0 3 0;
#X connect 10 0 3 0;
#X connect 13 0 12 0;
#X connect 14 0 6 0;
#X connect 14 1 13 0;
#X connect 14 3 10 0;
#X connect 14 4 17 0;
#X connect 14 4 16 1;
#X connect 14 5 22 0;
#X connect 14 5 20 0;
#X connect 16 0 9 0;
#X connect 16 0 13 1;
#X connect 17 0 13 1;
#X connect 18 0 16 0;
#X connect 18 1 5 0;
#X connect 20 0 19 0;
#X connect 21 0 26 0;
#X connect 21 1 0 0;
#X connect 22 0 0 1;
#X connect 25 0 24 0;
#X connect 25 0 23 0;
#X restore 464 358 pd enumerate-wavetables;
#X connect 0 0 8 0;
#X connect 0 1 7 0;
#X connect 0 2 6 0;
#X connect 0 3 5 0;
#X connect 1 0 3 0;
#X connect 2 0 1 0;
#X connect 4 0 2 0;
#X connect 11 0 10 0;
#X connect 12 0 13 0;
#X connect 14 0 0 0;
#X connect 15 0 24 0;
#X connect 16 0 15 0;
#X connect 17 0 4 0;
#X connect 19 0 18 0;
#X connect 20 0 21 0;
#X connect 21 0 18 0;
#X connect 21 1 4 0;
#X connect 21 2 24 0;
#X connect 22 0 15 0;
#X connect 23 0 4 0;
#X connect 24 0 2 1;
#X connect 24 0 1 1;
#X restore 44 167 pd init;
#X obj 44 73 inlet~;
#X obj 234 73 inlet~;
#N canvas 1101 63 291 346 \$0-wavetables 0;
#X obj 100 100 period-loader 0 1641;
#X restore 44 187 pd \$0-wavetables;
#N canvas 1096 101 330 317 \$0-wavereaders 0;
#X obj 100 100 wave-reader  0 1641;
#X restore 44 207 pd \$0-wavereaders;
#N canvas 904 217 493 399 \$0-crossfades 0;
#X obj 50 50 r~ missive-1641-wt-index;
#X obj 50 75 *~ 0;
#X obj 50 100 +~ 0.5;
#X obj 50 125 *~ 100;
#X obj 50 150 wt-gainsetter 1641  1 0;
#X connect 0 0 1 0;
#X connect 1 0 2 0;
#X connect 2 0 3 0;
#X connect 3 0 4 0;
#X restore 44 227 pd \$0-crossfades;
#X obj 434 73 inlet~;
#X obj 234 95 /~ 100;
#X obj 434 95 /~ 100;
#X obj 44 125 s~ missive-\$0-phasor;
#X obj 234 125 s~ missive-\$0-wt-index;
#X obj 434 125 s~ missive-\$0-squeeze;
#X obj 44 287 catch~ missive-\$0-sum-bus;
#X obj 624 73 inlet;
#N canvas 1144 96 450 300 parse-commands 0;
#X obj 48 38 inlet;
#X obj 48 60 route set;
#X obj 48 112 s missive-\$0-incoming-wt-set;
#X obj 48 82 symbol;
#X connect 0 0 1 0;
#X connect 1 0 3 0;
#X connect 3 0 2 0;
#X restore 624 95 pd parse-commands;
#X text 623 306 [missive~] \; William Brent \; Aaron Groves \; version
0.4 \; 2021;
#X text 349 208 \$1: wavetable set full path (or name-only if housed
in missive~'s wavetables sub-directory);
#X connect 2 0 10 0;
#X connect 3 0 8 0;
#X connect 7 0 9 0;
#X connect 8 0 11 0;
#X connect 9 0 12 0;
#X connect 13 0 0 0;
#X connect 14 0 15 0;
#X coords 0 411 1 410 410 250 0;
