#N canvas 268 189 731 630 10;
#X obj 33 186 soundfiler;
#X obj 196 379 + 3;
#N canvas 830 65 670 697 copy-points 0;
#X obj 42 35 inlet;
#X obj 176 274 f;
#X obj 216 273 + 1;
#X msg 228 242 1;
#X obj 176 236 until;
#X obj 176 303 t f f;
#X obj 176 332 - 1;
#X msg 274 566 0;
#X obj 162 495 f;
#X obj 162 524 - 1;
#X obj 162 464 t b b;
#X obj 334 566 f;
#X obj 434 566 f;
#X text 366 564 N-2;
#X text 467 563 N-1;
#X obj 42 64 t b b f b f;
#X obj 402 413 + 3;
#X text 447 414 N = numSamps+3;
#X obj 452 536 - 1;
#X obj 352 536 - 2;
#X obj 42 470 t b b b b;
#X msg 42 524 0;
#X msg 102 524 1;
#X obj 372 158 inlet;
#X obj 372 192 pack s \$1 \$2;
#X msg 372 227 set missive-\$3-\$1-\$2-wave-guarded;
#X msg 372 247 set missive-\$3-\$1-\$2-wave;
#X obj 176 372 tabread;
#X obj 176 412 tabwrite;
#X obj 162 621 tabwrite;
#X obj 162 571 tabread;
#X connect 0 0 15 0;
#X connect 1 0 2 0;
#X connect 1 0 5 0;
#X connect 2 0 1 1;
#X connect 3 0 1 1;
#X connect 4 0 1 0;
#X connect 5 0 6 0;
#X connect 5 1 28 1;
#X connect 6 0 27 0;
#X connect 7 0 29 1;
#X connect 8 0 9 0;
#X connect 9 0 30 0;
#X connect 10 0 8 0;
#X connect 10 1 7 0;
#X connect 11 0 29 1;
#X connect 12 0 29 1;
#X connect 15 0 20 0;
#X connect 15 1 10 0;
#X connect 15 2 4 0;
#X connect 15 2 8 1;
#X connect 15 3 3 0;
#X connect 15 4 16 0;
#X connect 16 0 18 0;
#X connect 16 0 19 0;
#X connect 18 0 12 1;
#X connect 19 0 11 1;
#X connect 20 0 21 0;
#X connect 20 1 11 0;
#X connect 20 2 22 0;
#X connect 20 3 12 0;
#X connect 21 0 30 0;
#X connect 22 0 30 0;
#X connect 23 0 24 0;
#X connect 24 0 25 0;
#X connect 24 0 26 0;
#X connect 25 0 28 0;
#X connect 25 0 29 0;
#X connect 26 0 27 0;
#X connect 26 0 30 0;
#X connect 27 0 28 0;
#X connect 30 0 29 0;
#X restore 144 479 pd copy-points;
#X floatatom 80 223 10 0 0 0 - - -, f 10;
#X obj 33 13 r missive-\$2-wt-set;
#X obj 273 330 pack f \$2 s \$1;
#X msg 273 350 \; missive-\$2-\$3-\$4-numSamps \$1 \;;
#X obj 33 255 t b f f f;
#X obj 196 401 pack f \$2 s \$1;
#X msg 196 429 \; missive-\$2-\$3-\$4-wave-guarded resize \$1 \;;
#X obj 33 522 pack \$2 s \$1;
#X msg 33 557 \; missive-\$1-\$2-\$3-wave-guarded normalize \;;
#N canvas 1010 212 450 300 \$0-wavetables 0;
#X obj 50 100 table missive-6165-modern-0-wave;
#X obj 50 175 table missive-6165-modern-0-wave-guarded;
#X restore 491 74 pd \$0-wavetables;
#N canvas 1035 531 613 337 gen-wavetables 0;
#X obj 49 30 inlet;
#X obj 49 114 pack s \$1 \$2 \$0;
#X obj 153 40 f \$0;
#X msg 153 62 \; pd-\$1-wavetables clear \;;
#X msg 49 168 \; pd-\$4-wavetables obj 50 100 table missive-\$3-\$1-\$2-wave
\; pd-\$4-wavetables obj 50 175 table missive-\$3-\$1-\$2-wave-guarded
\;;
#X obj 49 52 t s b;
#X connect 0 0 5 0;
#X connect 1 0 4 0;
#X connect 2 0 3 0;
#X connect 5 0 1 0;
#X connect 5 1 2 0;
#X restore 220 103 pd gen-wavetables;
#X text 221 56 \$1: wavetablePeriodID \; \$2: missive dollar zero;
#X obj 33 35 t s s s s s s;
#X obj 33 130 pack s \$1 \$2;
#X msg 33 154 read -resize ../wavetables/\$1/\$2.wav missive-\$3-\$1-\$2-wave
;
#X connect 0 0 3 0;
#X connect 0 0 7 0;
#X connect 1 0 8 0;
#X connect 4 0 15 0;
#X connect 5 0 6 0;
#X connect 7 0 10 0;
#X connect 7 1 2 0;
#X connect 7 2 1 0;
#X connect 7 3 5 0;
#X connect 8 0 9 0;
#X connect 10 0 11 0;
#X connect 15 0 16 0;
#X connect 15 1 10 1;
#X connect 15 2 2 1;
#X connect 15 3 8 2;
#X connect 15 4 5 2;
#X connect 15 5 13 0;
#X connect 16 0 17 0;
#X connect 17 0 0 0;
